<?xml version="1.0" encoding="utf-8"?>
<!-- Generator: Adobe Illustrator 16.0.3, SVG Export Plug-In . SVG Version: 6.00 Build 0)  -->
<!DOCTYPE svg PUBLIC "-//W3C//DTD SVG 1.1//EN" "http://www.w3.org/Graphics/SVG/1.1/DTD/svg11.dtd">
<svg version="1.1" id="レイヤー_1" xmlns="http://www.w3.org/2000/svg" xmlns:xlink="http://www.w3.org/1999/xlink" x="0px"
	 y="0px" width="18px" height="18px" viewBox="0 0 18 18" enable-background="new 0 0 18 18" xml:space="preserve">
<path fill="#FFFFFF" d="M16.643,17.951C7.621,17.951,0,10.329,0,1.309C0,0.587,0.588,0,1.31,0h3.365c0.722,0,1.31,0.587,1.31,1.309
	c0,0.904,0.229,2.06,0.684,3.436c0.15,0.476,0.024,0.986-0.324,1.335L4.57,7.92c1.24,2.348,2.749,3.852,5.124,5.105l2.057-1.463
	c0.305-0.312,0.832-0.433,1.293-0.273c0.945,0.313,2.46,0.678,3.6,0.678c0.723,0,1.311,0.588,1.311,1.311v3.365
	C17.952,17.363,17.363,17.951,16.643,17.951"/>
</svg>
