<?xml version="1.0" encoding="utf-8"?>
<!-- Generator: Adobe Illustrator 16.0.3, SVG Export Plug-In . SVG Version: 6.00 Build 0)  -->
<!DOCTYPE svg PUBLIC "-//W3C//DTD SVG 1.1//EN" "http://www.w3.org/Graphics/SVG/1.1/DTD/svg11.dtd">
<svg version="1.1" id="レイヤー_1" xmlns="http://www.w3.org/2000/svg" xmlns:xlink="http://www.w3.org/1999/xlink" x="0px"
	 y="0px" width="18px" height="18px" viewBox="0 0 18 18" enable-background="new 0 0 18 18" xml:space="preserve">
<path d="M16.643,17.951C7.621,17.951,0,10.329,0,1.309C0,0.587,0.588,0,1.31,0h3.365c0.722,0,1.31,0.587,1.31,1.309
	c0,0.904,0.229,2.06,0.684,3.436C6.819,5.221,6.693,5.731,6.345,6.08L4.57,7.92c1.24,2.347,2.749,3.851,5.123,5.106l2.057-1.464
	c0.305-0.311,0.832-0.432,1.293-0.273c0.946,0.313,2.46,0.678,3.6,0.678c0.722,0,1.31,0.588,1.31,1.31v3.366
	C17.952,17.364,17.364,17.951,16.643,17.951"/>
</svg>
